HIERARCHY
ROOT joint_Root
{
	OFFSET 0.0 0.0 0.0
	CHANNELS 6 Xposition Yposition Zposition Zrotation Xrotation Yrotation 
	JOINT Hips
	{
		OFFSET -0.726466 93.3139 -2.00062
		CHANNELS 6 Xposition Yposition Zposition Zrotation Xrotation Yrotation 
		JOINT Spine
		{
			OFFSET 15.7357 0.0 0.0
			CHANNELS 6 Xposition Yposition Zposition Zrotation Xrotation Yrotation 
			JOINT Chest
			{
				OFFSET 8.98455 -0.406207 0.0
				CHANNELS 6 Xposition Yposition Zposition Zrotation Xrotation Yrotation 
				JOINT Neck
				{
					OFFSET 16.3773 0.0 0.0
					CHANNELS 6 Xposition Yposition Zposition Zrotation Xrotation Yrotation 
					JOINT Head
					{
						OFFSET 6.45672 0.0 0.0
						CHANNELS 6 Xposition Yposition Zposition Zrotation Xrotation Yrotation 
						End Site
						{
							OFFSET 0.0 0.0 0.0
						}
					}
				}
				JOINT Shoulder_L
				{
					OFFSET 12.9942 -0.242716 4.98039
					CHANNELS 6 Xposition Yposition Zposition Zrotation Xrotation Yrotation 
					JOINT UpperArm_L
					{
						OFFSET 5.34809 0.0 0.0
						CHANNELS 6 Xposition Yposition Zposition Zrotation Xrotation Yrotation 
						JOINT LowerArm_L
						{
							OFFSET 24.3286 1.87007e-05 0.0
							CHANNELS 6 Xposition Yposition Zposition Zrotation Xrotation Yrotation 
							JOINT Hand_L
							{
								OFFSET 22.2916 0.0 0.0
								CHANNELS 6 Xposition Yposition Zposition Zrotation Xrotation Yrotation 
								End Site
								{
									OFFSET 0.0 0.0 0.0
								}
							}
						}
					}
				}
				JOINT Shoulder_R
				{
					OFFSET 12.9945 -0.242716 -4.98039
					CHANNELS 6 Xposition Yposition Zposition Zrotation Xrotation Yrotation 
					JOINT UpperArm_R
					{
						OFFSET -5.34813 0.0 0.0
						CHANNELS 6 Xposition Yposition Zposition Zrotation Xrotation Yrotation 
						JOINT LowerArm_R
						{
							OFFSET -24.3289 0.000322201 0.0
							CHANNELS 6 Xposition Yposition Zposition Zrotation Xrotation Yrotation 
							JOINT Hand_R
							{
								OFFSET -22.2915 -0.000108084 0.0
								CHANNELS 6 Xposition Yposition Zposition Zrotation Xrotation Yrotation 
								End Site
								{
									OFFSET 0.0 0.0 0.0
								}
							}
						}
					}
				}
			}
		}
		JOINT UpperLeg_L
		{
			OFFSET -2.19248 -6.46944 0.0
			CHANNELS 6 Xposition Yposition Zposition Zrotation Xrotation Yrotation 
			JOINT LowerLeg_L
			{
				OFFSET 39.0811 0.0 -1.23785e-05
				CHANNELS 6 Xposition Yposition Zposition Zrotation Xrotation Yrotation 
				JOINT Foot_L
				{
					OFFSET 40.9854 0.0 -1.26872e-05
					CHANNELS 6 Xposition Yposition Zposition Zrotation Xrotation Yrotation 
					JOINT Toes_L
					{
						OFFSET 11.7543 0.0 0.0
						CHANNELS 6 Xposition Yposition Zposition Zrotation Xrotation Yrotation 
						End Site
						{
							OFFSET 0.0 0.0 0.0
						}
					}
				}
			}
		}
		JOINT UpperLeg_R
		{
			OFFSET -2.19251 6.46944 0.0
			CHANNELS 6 Xposition Yposition Zposition Zrotation Xrotation Yrotation 
			JOINT LowerLeg_R
			{
				OFFSET -39.0811 -0.00228153 -0.0401928
				CHANNELS 6 Xposition Yposition Zposition Zrotation Xrotation Yrotation 
				JOINT Foot_R
				{
					OFFSET -40.9854 0.0 0.0
					CHANNELS 6 Xposition Yposition Zposition Zrotation Xrotation Yrotation 
					JOINT Toes_R
					{
						OFFSET -11.7543 0.0 0.0
						CHANNELS 6 Xposition Yposition Zposition Zrotation Xrotation Yrotation 
						End Site
						{
							OFFSET 0.0 0.0 0.0
						}
					}
				}
			}
		}
	}
}
MOTION
Frames:	4
Frame Time:	0.0333333
0.000000 0.000000 0.000000 0.000000 0.000000 -0.000000 -1.197710 92.317300 -1.532410 88.176900 -0.773450 3.915010 15.735700 0.000005 -0.000001 83.249400 85.220700 -82.492800 8.984550 -0.406207 -0.000000 1.734710 -1.162740 1.529470 16.377300 -0.000001 -0.000001 1.961380 -2.282550 0.053792 6.456720 -0.000001 -0.000000 5.232070 -2.334930 -1.660110 12.994200 -0.242716 4.980390 -90.215400 0.731149 -73.588000 5.348090 -0.000007 -0.000001 -65.960700 38.276600 -16.981100 24.328600 0.000019 0.000005 2.646990 6.291320 -22.872400 22.291600 -0.000001 0.000005 2.110790 5.484180 -5.910260 12.994500 -0.242716 -4.980390 88.232600 5.957900 -73.444200 -5.348130 -0.000001 -0.000004 -64.799400 41.417800 -16.799300 -24.328900 0.000322 -0.000009 2.016890 6.932530 -16.273200 -22.291500 -0.000108 -0.000004 8.161980 5.430260 -3.947790 -2.192480 -6.469440 -0.000000 -175.446000 -5.989100 -2.938800 39.081100 -0.000007 -0.000012 -0.103497 0.246605 22.767200 40.985400 -0.000006 -0.000013 -0.400102 3.711030 -66.119100 11.754300 -0.000000 0.000003 -0.000027 -0.000334 -16.590600 -2.192510 6.469440 -0.000001 -179.915000 13.861600 -179.831000 -39.081100 -0.002282 -0.040193 -0.017875 0.060603 19.278700 -40.985400 0.000008 0.000006 4.298550 6.726660 -66.164100 -11.754300 -0.000006 -0.000006 -0.005501 -0.066233 -19.268300
0.000000 0.000000 0.000000 0.000000 0.000000 -0.000000 -1.218850 92.308100 -1.545010 88.184900 -0.663709 4.039600 15.735700 0.000005 -0.000001 83.024000 85.175100 -82.226200 8.984550 -0.406207 -0.000000 1.821640 -1.212660 1.613480 16.377300 -0.000001 -0.000001 1.936910 -2.305520 0.065390 6.456720 -0.000001 -0.000000 5.195770 -2.175720 -1.787360 12.994200 -0.242716 4.980390 -90.341800 1.166440 -73.668400 5.348090 -0.000007 -0.000001 -63.754500 35.994100 -18.670600 24.328600 0.000019 0.000005 3.342500 7.453320 -24.238300 22.291600 -0.000001 0.000005 0.389474 5.484070 -5.904330 12.994500 -0.242716 -4.980390 88.283200 5.793820 -73.463400 -5.348130 -0.000001 -0.000004 -64.980300 41.358500 -16.811500 -24.328900 0.000322 -0.000009 1.972140 6.812530 -16.195300 -22.291500 -0.000108 -0.000004 8.122830 5.431390 -3.986660 -2.192480 -6.469440 -0.000000 -175.428000 -5.905580 -2.863060 39.081100 -0.000007 -0.000012 -0.102466 0.243424 22.828000 40.985400 -0.000006 -0.000013 -0.393636 3.802380 -66.138800 11.754300 -0.000000 0.000003 -0.000021 -0.000268 -16.588100 -2.192510 6.469440 -0.000001 -179.940000 13.959400 -179.736000 -39.081100 -0.002282 -0.040193 -0.017857 0.060303 19.352200 -40.985400 0.000008 0.000006 4.306960 6.697210 -66.205700 -11.754300 -0.000006 -0.000006 -0.005911 -0.070027 -19.423000
0.000000 0.000000 0.000000 0.000000 0.000000 -0.000000 -1.263130 92.302500 -1.591870 88.203000 -0.437602 4.094650 15.735700 0.000005 -0.000001 83.408100 85.181600 -82.576100 8.984550 -0.406207 -0.000000 1.816270 -1.148790 1.680710 16.377300 -0.000001 -0.000001 2.019610 -2.441970 -0.010601 6.456720 -0.000001 -0.000000 5.180290 -2.402290 -1.869930 12.994200 -0.242716 4.980390 -90.419700 1.439570 -73.744800 5.348090 -0.000007 -0.000001 -60.922900 32.211200 -21.301700 24.328600 0.000019 0.000005 3.479690 7.108130 -26.168800 22.291600 -0.000001 0.000005 0.147135 5.478450 -5.689690 12.994500 -0.242716 -4.980390 88.317600 5.663690 -73.426100 -5.348130 -0.000001 -0.000004 -65.119200 41.417300 -16.667700 -24.328900 0.000322 -0.000009 1.962540 6.750910 -16.259400 -22.291500 -0.000108 -0.000004 8.056620 5.431040 -3.974790 -2.192480 -6.469440 -0.000000 -175.404000 -5.914740 -2.911910 39.081100 -0.000007 -0.000012 -0.102459 0.242653 22.891700 40.985400 -0.000006 -0.000013 -0.383226 3.982380 -66.107000 11.754300 -0.000000 0.000003 -0.000025 -0.000307 -16.589600 -2.192510 6.469440 -0.000001 -179.931000 14.030600 -179.736000 -39.081100 -0.002282 -0.040193 -0.019356 0.064302 19.427200 -40.985400 0.000008 0.000006 4.321950 6.547230 -66.227900 -11.754300 -0.000006 -0.000006 -0.005722 -0.068288 -19.352100
0.000000 0.000000 0.000000 0.000000 0.000000 -0.000000 -1.336570 92.298600 -1.648290 88.221600 -0.130520 4.227700 15.735700 0.000005 -0.000001 83.463700 85.179500 -82.577300 8.984550 -0.406207 -0.000000 1.822200 -1.142770 1.789260 16.377300 -0.000001 -0.000001 2.136530 -2.535000 -0.117686 6.456720 -0.000001 -0.000000 5.322960 -2.659770 -2.121020 12.994200 -0.242716 4.980390 -90.451500 1.549840 -73.755800 5.348090 -0.000007 -0.000001 -58.485500 26.447800 -24.136900 24.328600 0.000019 0.000005 3.730310 6.767050 -28.956500 22.291600 -0.000001 0.000005 0.938502 5.479470 -5.727390 12.994500 -0.242716 -4.980390 88.340400 5.600860 -73.465500 -5.348130 -0.000001 -0.000004 -65.068000 41.570100 -16.593800 -24.328900 0.000322 -0.000009 1.964930 6.762790 -16.251100 -22.291500 -0.000108 -0.000004 8.052230 5.431180 -3.979490 -2.192480 -6.469440 -0.000000 -175.359000 -5.756110 -2.884770 39.081100 -0.000007 -0.000012 -0.104035 0.245883 22.933600 40.985400 -0.000006 -0.000013 -0.399402 4.162040 -66.059200 11.754300 -0.000000 0.000003 -0.000023 -0.000281 -16.588600 -2.192510 6.469440 -0.000001 -179.945000 14.278900 -179.641000 -39.081100 -0.002282 -0.040193 -0.020048 0.066091 19.474200 -40.985400 0.000008 0.000006 4.318700 6.486040 -66.237300 -11.754300 -0.000006 -0.000006 -0.005662 -0.067737 -19.329600
